<svg id="Layer_1" data-name="Layer 1" xmlns="http://www.w3.org/2000/svg" viewBox="0 0 819.77 356.82"><defs><style>.cls-1{fill:#6c3f13;}.cls-2{font-size:95px;font-family:Scala;letter-spacing:0.05em;}.cls-3{letter-spacing:0.08em;}.cls-4{fill:none;}</style></defs><path d="M371.74,452.67c-35.14,0-67.17-12.1-90.2-34.09s-35.75-52.64-35.75-86.26c0-33.1,12.52-63.78,35.25-86.37s53.57-35,86.85-35c22.49,0,40.4,3.72,59.55,12.39V209.12l1-1h16.45l1,1v59.5l-1,1H428.44l-1-1V252c-21.31-15.65-36.67-21.21-58.5-21.21-50.93,0-86.5,40.9-86.5,99.45,0,57.34,40.3,102.25,91.75,102.25,17.38,0,31.36-4.47,53.25-17.07v-25l1-1h16.8l1,1V437l-.65.94C416.06,448.81,396.73,452.67,371.74,452.67Z" transform="translate(-245.79 -205.67)"/><path d="M479,448.12l-1-1V434.17l1-1h25.6v-124H475.19l-1-1v-9.45l.74-1,50.4-13.65.26,0h6.3l1,1v148.1h25.6l1,1v12.95l-1,1Zm38.15-203.7a19.38,19.38,0,1,1,19.55-19.55A19.17,19.17,0,0,1,517.19,244.42Z" transform="translate(-245.79 -205.67)"/><path d="M650.74,537.73c-30.31,0-49.67-10-69-35.75l-.13-1c7.42-18.22,10.18-23.4,26.44-43.79-9.7-2.26-15.17-6.14-25.21-17.47l-.12-1.16c11.84-20.9,17.05-27.23,35.89-43.11-20-12-29.37-27.83-29.37-49.85,0-37.81,26.22-62.25,66.8-62.25,14.35,0,19.41,1.38,38.38,10.5h22L741.16,288l1.23,1V311l-1,1H713.07c7.4,9.2,10.07,17.72,10.07,31.55,0,38-26,61.55-67.85,61.55-10.25,0-14.29-.65-24.57-4.05-10.05,10.45-14,16.83-14,22.65,0,5.38,3.08,8.1,9.15,8.1h87.5c17.28,0,27.6,12.42,27.6,33.2C741,505.09,700.5,537.73,650.74,537.73Zm-27.48-78.41c-8.48,12.13-11.07,18.74-11.07,28.05,0,20.23,19.16,34.36,46.6,34.36,30.19,0,55.7-20.7,55.7-45.21,0-10.61-4.71-17.2-12.3-17.2Zm33.08-160.65c-22.92,0-37.15,17.32-37.15,45.2,0,28.1,14.23,45.55,37.15,45.55,22.57,0,37.15-17.88,37.15-45.55C693.49,316.41,678.91,298.67,656.34,298.67Z" transform="translate(-245.79 -205.67)"/><path d="M810.68,452.67c-24.91,0-43-17.35-43-41.25,0-18.36,11.71-33.38,29.13-37.37l59.07-13.48V321.82c0-13.41-9.88-23.15-23.5-23.15-6.33,0-10.67.78-20.7,5.58v16.17l-.72,1-31.15,9.1-1.14-.45c-2.53-4.34-2.94-6.29-2.94-10.31,0-21.06,23.68-36.35,56.3-36.35,31.17,0,52.1,15.87,52.1,39.5v106.8h26l1,1v9.8l-.71,1-23.45,7.35c-5,1.54-9.81,2.49-12.55,2.49-11.36,0-18.15-8.09-18.15-21.65v-.71C842,445.75,828.68,452.67,810.68,452.67ZM798,406.87c0,14.07,9.09,23.15,23.15,23.15,10.68,0,19.48-4.55,34.7-18V376.63L798,390.17Z" transform="translate(-245.79 -205.67)"/><path d="M937.38,448.12l-1-1V434.17l1-1H963v-124H933.53l-1-1v-9.45l.74-1,50.4-13.65.26,0h6.3l1,1v36.31c24-30.48,33.22-38,45.9-38,4.62,0,8.25,1.19,10.51,3.44l10.8,9.41.11,1.39-20.3,24.5-1.46.09c-6.75-6.41-11.56-9.53-14.71-9.53-5.8,0-11.87,5.66-30.85,28.76v91.74h32.6l1,1v12.95l-1,1Z" transform="translate(-245.79 -205.67)"/><path class="cls-1" d="M448.24,439c-29.4,10.85-48.65,14.7-73.5,14.7-72.1,0-125-50.4-125-119.35,0-67.9,52.85-120.4,121.1-120.4,22.75,0,40.95,3.85,60.55,13V211.12h16.45v59.5H431.44V253.47c-21.35-15.75-37.1-21.7-59.5-21.7-51.8,0-87.5,41.3-87.5,100.45,0,58.1,40.6,103.25,92.75,103.25,17.5,0,31.85-4.55,54.25-17.5V392.42h16.8Z" transform="translate(-245.79 -205.67)"/><path class="cls-1" d="M561.49,449.12H482V436.17h26.6v-126H478.19v-9.45l50.4-13.65h6.3v149.1h26.6Zm-41.3-240.45a18.38,18.38,0,1,1-18.2,18.2A18.16,18.16,0,0,1,520.19,208.67Z" transform="translate(-245.79 -205.67)"/><path class="cls-1" d="M744.39,313H713.94c8.4,9.8,11.2,18.2,11.2,32.55,0,37.1-25.55,60.55-66.85,60.55-10.5,0-14.35-.7-24.85-4.2-10.5,10.85-14.7,17.5-14.7,23.8,0,5.95,3.5,9.1,10.15,9.1h87.5c16.8,0,26.6,11.9,26.6,32.2,0,39.56-39.9,71.76-89.25,71.76-30.1,0-49-9.8-68.25-35.36,7.7-18.9,10.5-23.8,27.3-44.8-10.15-2.1-15.4-5.25-26.25-17.5,11.9-21,17.15-27.3,36.75-43.75-20.65-11.9-30.1-27.65-30.1-49.7,0-37.45,25.9-61.25,65.8-61.25,14.35,0,19.25,1.4,38.15,10.5h22.4l24.85-5.95ZM625.74,460.32c-9.1,12.95-11.55,19.6-11.55,29.05,0,20.66,19.6,35.36,47.6,35.36,30.8,0,56.7-21.36,56.7-46.21,0-11.2-5.25-18.2-13.3-18.2Zm33.6-67.9c23.1,0,38.15-18.2,38.15-46.55s-15-46.2-38.15-46.2c-23.45,0-38.15,17.85-38.15,46.2S635.89,392.42,659.34,392.42Z" transform="translate(-245.79 -205.67)"/><path class="cls-1" d="M913.09,442.47l-23.46,7.35c-4.55,1.4-9.45,2.45-12.25,2.45-10.85,0-17.15-7.7-17.15-20.65v-3.5c-14.7,18.2-28,25.55-46.55,25.55-24.15,0-42-16.8-42-40.25,0-17.85,11.55-32.55,28.35-36.4l59.85-13.65V323.82c0-14-10.5-24.15-24.5-24.15-7,0-11.55,1.05-21.7,5.95v16.8l-31.15,9.1c-2.45-4.2-2.8-5.95-2.8-9.8,0-20.3,23.45-35.35,55.3-35.35,30.8,0,51.1,15.4,51.1,38.5v107.8h27Zm-53.21-65.1-59.85,14v17.5c0,14.7,9.45,24.15,24.15,24.15,11.2,0,20.3-4.9,35.7-18.55Z" transform="translate(-245.79 -205.67)"/><path class="cls-1" d="M1026.83,449.12H940.38V436.17H967v-126H936.53v-9.45l50.4-13.65h6.3v39.2c25.2-32.2,34.3-39.9,46.9-39.9,4.2,0,7.7,1.05,9.8,3.15l10.85,9.45-20.3,24.5c-7-6.65-11.9-9.8-15.4-9.8-6.3,0-12.6,5.95-31.85,29.4v93.1h33.6Z" transform="translate(-245.79 -205.67)"/><text class="cls-2" transform="translate(509.5 332.5)">F<tspan class="cls-3" x="59.18" y="0">inder</tspan></text><line class="cls-4" x1="285.12" y1="184.71" x2="429.76" y2="191.87"/></svg>